<?xml version="1.0" encoding="UTF-8" standalone="no"?>
<svg xmlns="http://www.w3.org/2000/svg" width="170.78mm" height="129.96mm">
  <g fill-rule="evenodd" transform="matrix(1.3583 0 0 1.27253 -281.2623 -453.2884)">
    <path fill="#b98b75" d="M295.65885 602.30693c115.22775-12.86908 230.45549-25.73815 345.68324-38.60723.79195-11.08721-6.73151-20.9865-10.09727-31.47975-41.973-66.12726-94.63723-126.31495-188.28452-166.30809-50.48638-3.16777-45.73473 12.67109-51.6743 52.86221 54.4461 31.08378 136.21424 40.19113 156.21081 116.41567-70.28496 16.82879-140.56993 33.65759-210.85489 50.48638-9.89929-5.34562-19.79859-5.34562-29.69788-1.78187l-11.28519 18.41268z" opacity=".52657002"/>
    <path fill="#e9e9af" d="M391.89807 420.97335c8.34498 2.00279 16.68996 4.00559 25.03494 6.00838 68.09505 21.02936 126.17613 58.08108 130.68242 108.15097-4.67319 8.34498-11.84987 14.68716-14.01957 25.03494-5.50769 37.05172-15.52167 33.04612-22.53145 12.01677-.6676-25.20184-4.33939-27.37154-15.52167-23.03215-17.85826 10.01398-48.23399 10.51468-73.10204 10.51468-3.17109 17.52446-21.36315 14.01957-32.04473 21.02935-5.50769 63.75566-13.01817 61.41906-22.53145.5007-18.02516 7.34358-38.05311.6676-57.07967 1.0014-14.68717 29.20744-24.86804 31.87783-39.55521 20.02796-7.34358 27.70534 15.85546 38.38691-17.02376 28.03914-30.70953-10.51468 9.30465 54.20065 2.12797 73.41497-11.01774 7.17642-40.01419-28.10173-28.16431-75.91847-15.18787-26.20324-11.84988-37.88621 7.51048-48.06709 3.50489-22.53145 17.02376-30.54263 31.54403-36.05032 8.51188-7.00979 17.02376-14.01957 25.53564-21.02936 10.68157-25.53564 24.36734-33.54682 42.5594-39.05451 1.669-29.70813 14.85407-34.88202 32.04473-39.55521 5.67459-11.68298 12.85127-19.86106 24.53425-23.03215z"/>
    <path d="M427.71488 359.70622c-9.90277-.0657-19.57699 1.37609-28.875 4.4375-14.89674 18.54255-7.64476 35.68596-11.46875 53.53125-12.99407 3.57656-18.41388 13.11186-26 23.71875-25.84942 8.96107-28.98894 14.65624-32.125 38.21875-21.30657 5.33765-29.61786 16.08354-42.8125 43.59375-12.26022 3.92428-15.87605 8.41085-22.1875 19.90625-21.52307-2.30281-26.82576 12.13288-32.125 33.625-26.88504 14.05974-24.03471 37.33959-7.65625 53.5625-.76478 13.2565-1.51645 26.4935-2.28125 39.75 11.69599 47.55893 58.0112 59.96793 36.71875 1.53125-3.05921-13.00158-17.64438-25.99843-9.1875-39 14.39245 9.05476 21.76457 14.87453 23.71875-19.875 13.87475 4.56219 20.20686 2.28355 23.71875-2.5625l70.34375-7.96875c-.00002 8.34951 0 16.71299 0 25.0625 2.9739 27.22528 20.02179 10.09551 26.78125-9.1875-.55153-6.25042-1.10475-12.49958-1.65625-18.75l118.15625-13.4375c1.88679 4.41518 4.98196 7.6223 10.4375 8.46875 9.85089-.80219 13.4132-5.40042 14.78125-11.34375l103.75-11.78125c5.50767-6.84289 8.00909-11.19396 1.5-14.03125l-104.375 12.9375c-.01802-5.07583.11557-10.03927 1.9375-14 2.84267-13.50394 10.54278-19.43526 19.875-27.53125 5.47728-5.54667 11.85859-6.61482 12.46875-15.40625 22.81316 3.87414 43.65599 22.15681 68.0625 41.8125 4.87925-6.38066 2.28779 2.64886 3.28125-9.9375C578.9338 434.53642 497.03414 360.1661 427.71488 359.70622zm-8.90625 11.3125c3.61858-.14553 7.89087.31634 12.9375 1.53125 73.40558 14.40563 138.69059 83.42908 194.25 156.78125-2.89835 19.79817-48.51501-46.91702-68.71875-16.84375-.50988 2.80426-9.12992 11.53873-12.34375 26.78125-13.77183 5.02352-15.30761 13.3038-17.0625 31.21875.87598 18.92282-2.00382 17.96865-5.0625 18.25-2.97396.27356-5.45807.26864-7.09375-15.96875h-.0625c-.00889-.15572.03316-12.49661.96875-19.71875 2.54524-8.74957-3.31841-14.23391-11.46875-14.53125-8.15788 3.56906-16.3109 7.11844-24.46875 10.6875-6.11842.50987-12.22536 1.02139-18.34375 1.53125-7.90294-4.1642-14.73425-.73588-23.71875 5.375-6.37335-1.27467-12.75168-2.56909-19.125-3.84375-2.03947 5.35358-4.08554 10.70891-6.125 16.0625-7.90294 1.78452-15.78459 3.59047-23.6875 5.375-.8492 5.00074-1.71332 9.99926-2.5625 15l-1.9375 11.4375c-.79788 4.69853-1.60839 9.39522-2.40625 14.09375-3.19775 18.20851-5.24176 7.97111-8.03125-12.90625l-1.875-13.28125s-.93151-8.18028-1.5625-12.84375l-9.15625-9.15625c-5.86348 4.5888-11.7303 9.16121-17.59375 13.75-4.24108 2.4181-9.56712 3.23029-17.59375.78125 5.67785 13.3652 13.50101 13.21883 26.75 7.65625 5.19508-1.80718 9.71977-1.96438 12.15625 3.125l-64.4375 7.96875c1.97409-7.37925 3.92287-14.86621 12.53125-16.46875-11.05491-1.7386-17.27408 10.14408-25.625 20.84375-7.10147-.54652-12.8701-6.82567-17.96875-9.375-10.3754 7.49334-9.38754 11.20294-8.40625 30.59375-6.62827-.25494-12.7372-3.19904-19.90625-.75-2.73489 12.26768-6.54973 20.75663 1.53125 35.1875 17.86964 37.98681 10.86264 60.28237-14.53125 6.875-1.86595-8.58097 1.02139-14.79445 1.53125-22.1875 5.5626-17.07297-8.86123-30.91131-7.625-38.25.96539-9.27035 6.23091-17.4527 19.09375-22.9375 4.85124-22.34972 9.16018-24.67707 27.53125-31.34375 6.6976-11.78127 12.87105-17.07803 29.84375-19.125 5.11363-29.16354 16.69901-38.31628 41.28125-42.0625 4.23438-2.92757 33.45936 5.01311 48.875 13.53125 6.7064-4.75351 29.51284-13.36356 48.375-8.34375 5.17511-6.25232 8.73095-11.36538 25.21875-15.8125-4.26036-.61848-1.04406.13871-10.28125-2.21875-19.75191-25.38961-41.45129-20.33377-51.96875-19.84375-2.00839-3.52624-8.89082-9.29882-18.375-11.46875 4.03467 6.84265 12.97569 13.26529 7.0625 13.59375-5.91321.32846-23.65517 12.07817-27.96875 27.0625-7.31496-6.12694-20.45224-1.69561-19.8125-5.71875 3.06348-19.26547 18.06923-28.99612 28.71875-32.09375 4.05546-11.08582 15.66418-21.61291 26.75-26.75 3.72367-12.77756 2.04277-24.48198 3.0625-36.71875 2.56642-8.11754 7.58171-14.09468 18.4375-14.53125zm82.53125 182.78125c4.20262.1003 6.24872-.34674 6.125 8.40625.21294 3.84239.35448 7.74642.6875 11.46875l-108.65625 13.5c1.82235-1.17918 3.64638-2.35207 5.46875-3.53125 15.72893 1.67672 19.55566-3.1378 24.46875-16.0625 14.17591 5.84843 24.04712 3.05071 34.4375-8.40625 15.73643 5.24578 24.97705 5.06223 37.46875-5.375z"/>
    <path d="M536.5668 506.22809c2.88423-7.75138 5.76847-15.50276 8.6527-23.25414h-12.97905c3.0645-5.76847 6.129-11.53693 9.1935-17.3054l-23.25414 3.78555c2.88423-7.57111 5.76847-15.14223 8.6527-22.71334-8.47244 4.86715-16.94487 9.73429-25.41731 14.60144l7.03032-24.33573c-5.94873 4.32635-11.89747 8.6527-17.8462 12.97905 1.80265-6.85006 3.60529-13.70011 5.40794-20.55017-5.04741 3.78556-10.09482 7.57112-15.14223 11.35667-.18027-6.66979-.36053-13.33958-.5408-20.00937l-14.06064 22.17255c-1.44212-8.83297-2.88423-17.66593-4.32635-26.4989-3.78556 4.32635-7.57111 8.6527-11.35667 12.97905-.90132-6.48952-1.80265-12.97905-2.70397-19.46858-1.80265 3.42503-3.60529 6.85006-5.40794 10.27509-2.88423-5.76847-5.76847-11.53694-8.6527-17.30541-1.80265 4.68688-3.60529 9.37376-5.40794 14.06064l-11.35668-11.89746v15.68302c-3.60529 3.60529-7.21058 7.21059-10.81587 10.81588 7.39085.54079 14.7817 1.08159 22.17255 1.62238l25.9581 15.14223c-4.50661 3.0645-9.01323 6.129-13.51984 9.1935 32.08711-4.14609 43.08325 2.5237 52.45701 20.00937 24.69625 3.60529 34.25028 10.99614 43.26351 28.66208zm-8.47863 13.88364c-22.53145-.5007-42.05871 10.01398-55.57758 19.52726-18.85966-7.34359-32.21163-12.18368-59.58317-4.0056 5.67459-5.00699 11.34918-10.01397 17.02377-15.02096-13.18507-7.84428-20.36176-4.67319-30.54264-7.00979 13.18507-1.83589 27.37154-8.67878 38.05312 3.5049 31.21023-27.03774 64.42326-34.04752 75.60553 0 5.00699 1.0014 10.01398 2.00279 15.02097 3.00419zm-226.3159 13.51887c4.84009 2.50349 12.68437 4.00559 14.52027 7.51048-6.00839 3.17109-10.01398 8.34498-12.01678 14.01957-9.17948-.1669-19.36036 4.17249-27.53844 11.51608 16.68996-1.1683 33.37993-4.33939 50.06989 4.00559 12.01677-8.17808 21.02935-12.35058 36.05032-12.51748 8.67878-15.85546 9.34638-21.19625 39.55522-22.03075-14.01957-7.00978-25.03494-8.01118-36.05032 1.5021-4.84009-3.33799-9.68018-6.67599-14.52027-10.01398 6.50909-7.34358 13.01817-14.68717 19.52726-22.03075-15.18787 4.33939-25.86944 10.18088-32.04473 23.53285-6.00839-1.0014-11.01538 1.0014-15.02097 4.50629-7.51048-2.0028-15.02097-2.0028-22.53145 0z"/>
    <path fill="#c81919" d="M316.15039 556.86918c4.45468.79194 8.90936 2.47482 13.36404 6.83051 8.21641-7.0285 16.43282-10.49325 27.32204-13.06706 3.66274-19.6006-34.25154-13.06707-40.68608 6.23655zm55.53502-69.19604c5.24662.89094 10.79022 2.37583 14.84893 6.23655 14.94793-4.25669 25.73816-11.48317 45.73473-5.64259 3.16777-3.06878 7.22648-5.24663 12.17613-5.6426-17.22477-27.61902-53.75315-18.70966-72.75979 5.04864zm73.65072 35.04349c9.89929.98993 18.61067 2.57382 27.916 7.42447 9.99829-7.32548 15.83887-10.79023 29.10392-13.958-12.17613-27.22305-43.65588-13.76002-57.01992 6.53353z"/>
  </g>
</svg>